<svg width="47" height="47" viewBox="0 0 47 47" fill="none" xmlns="http://www.w3.org/2000/svg">
<path d="M36.9584 37.25C34.4147 37.25 32.3751 39.2896 32.3751 41.8334C32.3751 43.049 32.858 44.2147 33.7175 45.0743C34.577 45.9338 35.7428 46.4167 36.9584 46.4167C38.174 46.4167 39.3398 45.9338 40.1993 45.0743C41.0589 44.2147 41.5417 43.049 41.5417 41.8334C41.5417 40.6178 41.0589 39.452 40.1993 38.5925C39.3398 37.7329 38.174 37.25 36.9584 37.25ZM0.291748 0.583374V5.16671H4.87508L13.1251 22.5605L10.0084 28.175C9.66466 28.8167 9.45841 29.573 9.45841 30.375C9.45841 31.5906 9.9413 32.7564 10.8008 33.616C11.6604 34.4755 12.8262 34.9584 14.0417 34.9584H41.5417V30.375H15.0042C14.8523 30.375 14.7066 30.3147 14.5991 30.2072C14.4917 30.0998 14.4313 29.9541 14.4313 29.8021C14.4313 29.6875 14.4542 29.5959 14.5001 29.5271L16.5626 25.7917H33.6355C35.3542 25.7917 36.8667 24.8292 37.6459 23.4313L45.8501 8.60421C46.0105 8.23754 46.1251 7.84796 46.1251 7.45837C46.1251 6.85059 45.8836 6.26769 45.4539 5.83792C45.0241 5.40815 44.4412 5.16671 43.8334 5.16671H9.93966L7.7855 0.583374H0.291748ZM14.0417 37.25C11.498 37.25 9.45841 39.2896 9.45841 41.8334C9.45841 43.049 9.9413 44.2147 10.8008 45.0743C11.6604 45.9338 12.8262 46.4167 14.0417 46.4167C15.2573 46.4167 16.4231 45.9338 17.2827 45.0743C18.1422 44.2147 18.6251 43.049 18.6251 41.8334C18.6251 40.6178 18.1422 39.452 17.2827 38.5925C16.4231 37.7329 15.2573 37.25 14.0417 37.25Z" fill="black"/>
</svg>
