<svg width="47" height="47" viewBox="0 0 47 47" fill="none" xmlns="http://www.w3.org/2000/svg">
<path d="M23.4999 0.675049C10.8958 0.675049 0.583252 10.9646 0.583252 23.6375C0.583252 35.0959 8.97075 44.6063 19.9249 46.325V30.2834H14.1041V23.6375H19.9249V18.573C19.9249 12.8209 23.3395 9.65838 28.5874 9.65838C31.0853 9.65838 33.6978 10.0938 33.6978 10.0938V15.7542H30.8103C27.9687 15.7542 27.0749 17.5188 27.0749 19.3292V23.6375H33.4458L32.4145 30.2834H27.0749V46.325C32.4751 45.4722 37.3925 42.7169 40.9393 38.5564C44.4862 34.396 46.4288 29.1046 46.4166 23.6375C46.4166 10.9646 36.1041 0.675049 23.4999 0.675049Z" fill="black"/>
</svg>
