<svg width="47" height="43" viewBox="0 0 47 43" fill="none" xmlns="http://www.w3.org/2000/svg">
<path d="M23.7291 36.5104L23.4999 36.7396L23.2478 36.5104C12.3624 26.6333 5.16659 20.1021 5.16659 13.4792C5.16659 8.89583 8.60409 5.45833 13.1874 5.45833C16.7166 5.45833 20.1541 7.75 21.3687 10.8667H25.6312C26.8458 7.75 30.2833 5.45833 33.8124 5.45833C38.3958 5.45833 41.8333 8.89583 41.8333 13.4792C41.8333 20.1021 34.6374 26.6333 23.7291 36.5104ZM33.8124 0.875C29.8249 0.875 25.9978 2.73125 23.4999 5.64167C21.002 2.73125 17.1749 0.875 13.1874 0.875C6.12909 0.875 0.583252 6.39792 0.583252 13.4792C0.583252 22.1188 8.37492 29.2 20.177 39.9021L23.4999 42.9271L26.8228 39.9021C38.6249 29.2 46.4166 22.1188 46.4166 13.4792C46.4166 6.39792 40.8708 0.875 33.8124 0.875Z" fill="black"/>
</svg>
