<svg width="55" height="55" viewBox="0 0 55 55" fill="none" xmlns="http://www.w3.org/2000/svg">
<path d="M17.8749 4.58337H37.1249C44.4583 4.58337 50.4166 10.5417 50.4166 17.875V37.125C50.4166 40.6502 49.0162 44.031 46.5236 46.5237C44.0309 49.0163 40.6501 50.4167 37.1249 50.4167H17.8749C10.5416 50.4167 4.58325 44.4584 4.58325 37.125V17.875C4.58325 14.3499 5.98362 10.9691 8.47629 8.47641C10.969 5.98374 14.3498 4.58337 17.8749 4.58337ZM17.4166 9.16671C15.2286 9.16671 13.1301 10.0359 11.583 11.5831C10.0358 13.1303 9.16659 15.2287 9.16659 17.4167V37.5834C9.16659 42.1438 12.8562 45.8334 17.4166 45.8334H37.5833C39.7713 45.8334 41.8697 44.9642 43.4169 43.417C44.9641 41.8698 45.8333 39.7714 45.8333 37.5834V17.4167C45.8333 12.8563 42.1437 9.16671 37.5833 9.16671H17.4166ZM39.5312 12.6042C40.2909 12.6042 41.0195 12.906 41.5567 13.4432C42.094 13.9804 42.3958 14.7091 42.3958 15.4688C42.3958 16.2285 42.094 16.9571 41.5567 17.4944C41.0195 18.0316 40.2909 18.3334 39.5312 18.3334C38.7714 18.3334 38.0428 18.0316 37.5056 17.4944C36.9684 16.9571 36.6666 16.2285 36.6666 15.4688C36.6666 14.7091 36.9684 13.9804 37.5056 13.4432C38.0428 12.906 38.7714 12.6042 39.5312 12.6042ZM27.4999 16.0417C30.5389 16.0417 33.4533 17.2489 35.6022 19.3978C37.751 21.5466 38.9583 24.4611 38.9583 27.5C38.9583 30.539 37.751 33.4535 35.6022 35.6023C33.4533 37.7512 30.5389 38.9584 27.4999 38.9584C24.461 38.9584 21.5465 37.7512 19.3977 35.6023C17.2488 33.4535 16.0416 30.539 16.0416 27.5C16.0416 24.4611 17.2488 21.5466 19.3977 19.3978C21.5465 17.2489 24.461 16.0417 27.4999 16.0417ZM27.4999 20.625C25.6766 20.625 23.9279 21.3494 22.6386 22.6387C21.3492 23.928 20.6249 25.6767 20.6249 27.5C20.6249 29.3234 21.3492 31.0721 22.6386 32.3614C23.9279 33.6507 25.6766 34.375 27.4999 34.375C29.3233 34.375 31.072 33.6507 32.3613 32.3614C33.6506 31.0721 34.3749 29.3234 34.3749 27.5C34.3749 25.6767 33.6506 23.928 32.3613 22.6387C31.072 21.3494 29.3233 20.625 27.4999 20.625Z" fill="black"/>
</svg>
