<svg width="47" height="47" viewBox="0 0 47 47" fill="none" xmlns="http://www.w3.org/2000/svg">
<path d="M34.9583 21.2084H30.3749V16.625H34.9583V21.2084ZM25.7916 21.2084H21.2083V16.625H25.7916V21.2084ZM16.6249 21.2084H12.0416V16.625H16.6249V21.2084ZM41.8333 0.583374H5.16659C3.95101 0.583374 2.78522 1.06626 1.92568 1.9258C1.06614 2.78534 0.583252 3.95113 0.583252 5.16671V46.4167L9.74992 37.25H41.8333C43.0488 37.25 44.2146 36.7672 45.0742 35.9076C45.9337 35.0481 46.4166 33.8823 46.4166 32.6667V5.16671C46.4166 3.95113 45.9337 2.78534 45.0742 1.9258C44.2146 1.06626 43.0488 0.583374 41.8333 0.583374Z" fill="black"/>
</svg>
