<svg width="39" height="43" viewBox="0 0 39 43" fill="none" xmlns="http://www.w3.org/2000/svg">
<path d="M22.1875 0H27.5088C27.8958 1.92156 28.96 4.34569 30.8278 6.751C32.6553 9.10794 35.0794 10.75 38.3125 10.75V16.125C33.6013 16.125 30.0619 13.9374 27.5625 11.2096V29.5625C27.5625 32.2202 26.7744 34.8182 25.2979 37.028C23.8213 39.2378 21.7227 40.9601 19.2673 41.9771C16.8119 42.9942 14.1101 43.2603 11.5035 42.7418C8.89686 42.2233 6.50253 40.9435 4.62326 39.0642C2.74399 37.185 1.46419 34.7906 0.945704 32.184C0.427215 29.5774 0.693322 26.8756 1.71037 24.4202C2.72743 21.9648 4.44975 19.8662 6.65953 18.3896C8.86932 16.9131 11.4673 16.125 14.125 16.125V21.5C12.5304 21.5 10.9716 21.9729 9.64572 22.8588C8.31985 23.7447 7.28646 25.0039 6.67623 26.4771C6.066 27.9503 5.90633 29.5714 6.21742 31.1354C6.52852 32.6994 7.2964 34.136 8.42396 35.2635C9.55152 36.3911 10.9881 37.159 12.5521 37.4701C14.1161 37.7812 15.7372 37.6215 17.2104 37.0113C18.6836 36.401 19.9428 35.3677 20.8287 34.0418C21.7147 32.7159 22.1875 31.1571 22.1875 29.5625V0Z" fill="black"/>
</svg>
