<svg width="55" height="33" viewBox="0 0 55 33" fill="none" xmlns="http://www.w3.org/2000/svg">
<path fill-rule="evenodd" clip-rule="evenodd" d="M53.7396 2.63087C54.12 1.37962 53.7396 0.458374 51.9177 0.458374H45.9021C44.3712 0.458374 43.6654 1.25358 43.2827 2.13129C43.2827 2.13129 40.2233 9.45546 35.8898 14.213C34.4873 15.5925 33.8502 16.0303 33.0848 16.0303C32.7021 16.0303 32.1269 15.5925 32.1269 14.339V2.63087C32.1269 1.12754 31.7052 0.458374 30.431 0.458374H20.971C20.0154 0.458374 19.4402 1.15504 19.4402 1.81733C19.4402 3.24046 21.6081 3.57046 21.8304 7.57629V16.28C21.8304 18.189 21.4798 18.535 20.7144 18.535C18.6748 18.535 13.7133 11.1765 10.7685 2.75692C10.1979 1.11837 9.62042 0.458374 8.08271 0.458374H2.0625C0.34375 0.458374 0 1.25358 0 2.13129C0 3.69421 2.03958 11.4584 9.49896 21.7273C14.4719 28.7398 21.4729 32.5417 27.8506 32.5417C31.6754 32.5417 32.1475 31.6984 32.1475 30.2432V24.9425C32.1475 23.2536 32.5096 22.9167 33.7219 22.9167C34.6156 22.9167 36.1442 23.3567 39.7146 26.7369C43.7937 30.745 44.4652 32.5417 46.7615 32.5417H52.7771C54.4958 32.5417 55.3575 31.6984 54.8625 30.03C54.3171 28.3709 52.3692 25.9623 49.7865 23.1046C48.384 21.4775 46.2802 19.7244 45.6408 18.8467C44.7494 17.7215 45.0037 17.2196 45.6408 16.2182C45.6408 16.2182 52.9742 6.07525 53.7373 2.63087H53.7396Z" fill="black"/>
</svg>
