<svg width="47" height="33" viewBox="0 0 47 33" fill="none" xmlns="http://www.w3.org/2000/svg">
<path d="M18.9166 23.375L30.8103 16.5L18.9166 9.62504V23.375ZM45.4083 5.43129C45.7062 6.50838 45.9124 7.95213 46.0499 9.78546C46.2103 11.6188 46.2791 13.2 46.2791 14.575L46.4166 16.5C46.4166 21.5188 46.0499 25.2084 45.4083 27.5688C44.8353 29.6313 43.5062 30.9605 41.4437 31.5334C40.3666 31.8313 38.3958 32.0375 35.3708 32.175C32.3916 32.3355 29.6645 32.4042 27.1437 32.4042L23.4999 32.5417C13.8978 32.5417 7.91659 32.175 5.55617 31.5334C3.49367 30.9605 2.1645 29.6313 1.59159 27.5688C1.29367 26.4917 1.08742 25.048 0.949919 23.2146C0.789502 21.3813 0.720752 19.8 0.720752 18.425L0.583252 16.5C0.583252 11.4813 0.949919 7.79171 1.59159 5.43129C2.1645 3.36879 3.49367 2.03962 5.55617 1.46671C6.63325 1.16879 8.60409 0.96254 11.6291 0.82504C14.6083 0.664624 17.3353 0.595874 19.8562 0.595874L23.4999 0.458374C33.102 0.458374 39.0833 0.825041 41.4437 1.46671C43.5062 2.03962 44.8353 3.36879 45.4083 5.43129Z" fill="black"/>
</svg>
